<svg width="108" height="50" viewBox="0 0 108 50" fill="none" xmlns="http://www.w3.org/2000/svg">
<path d="M64.0944 24.9956C64.0944 25.403 64.0822 25.8104 64.0944 26.2184C64.229 30.3632 62.9784 34.0975 60.9704 37.6187C60.2972 38.7996 59.6537 40.0005 59.0739 41.234C58.5954 42.2481 57.9307 42.9588 56.8966 43.3744C56.3192 43.6057 55.7837 44.0068 55.2997 44.4198C53.0715 46.3233 50.5437 47.6866 47.84 48.6468C46.0442 49.2842 44.195 49.8452 42.2439 49.8201C41.6623 49.8132 41.0795 49.9981 40.4966 50C39.9138 50.0019 39.3316 49.8063 38.7542 49.832C36.2385 49.9436 33.9078 49.1426 31.594 48.3021C29.0686 47.3857 26.8386 45.9379 24.7408 44.2124C21.7805 41.7786 19.6711 38.7131 18.1204 35.2038C17.2846 33.3122 16.6041 31.3598 16.4119 29.2608C16.3797 28.9123 16.2682 28.5675 16.1693 28.2297C15.4658 25.8749 15.8703 23.5659 16.3058 21.2199C16.6387 19.4255 16.9814 17.653 17.6297 15.9494C19.3436 11.4435 22.0655 7.75373 25.8355 4.85554C28.9783 2.44185 32.4959 0.95828 36.3204 0.320854C40.7089 -0.410588 44.9931 0.115899 49.15 1.8251C51.2241 2.68065 53.1813 3.76433 54.8904 5.19901C56.4848 6.53717 57.9228 8.10285 59.2813 9.70299C60.5125 11.1533 61.3864 12.8807 62.167 14.6432C63.386 17.3966 64.1805 20.2465 64.0998 23.3083C64.0822 23.8743 64.095 24.4352 64.0944 24.9956ZM62.4096 19.4173C62.2883 18.4552 62.2124 17.3402 61.985 16.2584C61.3373 13.1452 59.5949 10.7152 57.2726 8.73087C55.9541 7.60268 54.5168 6.62241 53.1 5.62522C52.6203 5.28739 52.0629 4.97714 51.5025 4.87309C50.0621 4.59857 48.6053 4.34222 47.1455 4.26512C44.6116 4.13162 42.3355 3.45534 40.4226 1.63269C39.0144 0.292022 37.4812 0.16228 36.0177 1.34249C34.359 2.67877 32.471 3.46348 30.5466 4.24005C29.1366 4.80916 27.7786 5.52619 26.4225 6.23444C25.2896 6.82736 24.6298 7.75185 24.6455 9.15206C24.6546 9.9374 24.3065 10.5936 23.6036 11.0286C23.017 11.3936 22.4536 11.797 21.917 12.2364C20.4171 13.4573 19.2484 14.8325 18.9961 16.9666C18.7966 18.6545 18.3029 20.323 17.1846 21.7132C16.8109 22.1915 16.5792 22.7714 16.5174 23.3829C16.4143 24.6446 16.4568 25.9213 16.4871 27.1905C16.4956 27.5302 16.6381 27.8944 16.8061 28.1934C17.1924 28.8997 17.613 29.5855 18.0664 30.2479C19.1641 31.8268 20.1187 33.4445 20.3395 35.4501C20.553 37.3931 21.4603 38.9763 22.9953 40.1848C25.2187 41.936 27.362 43.7949 29.6187 45.5004C30.8317 46.4192 32.1302 47.2228 33.7301 47.4089C35.33 47.5951 36.8984 48.0457 38.3327 48.8793C38.6334 49.0469 38.9632 49.1515 39.3031 49.1871C41.3269 49.4127 43.2004 48.8944 44.9774 47.9147C45.5347 47.6076 46.1084 47.3287 46.6852 47.0617C48.0741 46.4186 49.6139 45.9962 50.8239 45.1005C52.1697 44.1021 53.6089 43.6589 55.1536 43.38C55.8207 43.2591 56.3665 42.9745 56.8008 42.4612C57.3193 41.852 57.7991 41.2076 58.3394 40.6191C58.898 40.0118 59.3013 39.3656 59.399 38.5C59.5488 37.1731 60.0976 36.0017 60.7939 34.876C61.9729 32.9744 62.6431 30.8728 62.9918 28.6384C63.0834 28.0523 63.1355 27.5566 62.8547 27.0407C62.0432 25.5522 62.3744 23.8618 62.1178 22.2773C61.9881 21.4205 62.287 20.4835 62.4126 19.4154L62.4096 19.4173ZM52.6421 4.54592C52.2994 4.15418 52.1909 3.97681 52.0356 3.86712C51.7554 3.66656 51.4498 3.50297 51.152 3.32936C48.6047 1.84516 45.8149 1.12375 42.9644 0.605406C42.3919 0.500736 41.7897 0.547744 41.2056 0.570935C41.0534 0.576576 40.8721 0.729507 40.7756 0.867396C40.7313 0.930073 40.8308 1.14945 40.9151 1.25412C41.5492 2.03569 42.3761 2.62524 43.3083 2.96019C44.9175 3.5593 46.6092 3.88793 48.3191 3.93356C49.0432 3.95425 49.7656 4.09589 50.4867 4.19743C51.1016 4.28769 51.716 4.39612 52.6421 4.54592ZM31.0009 47.3193C29.2912 45.874 27.7926 44.5822 26.2673 43.3249C25.0046 42.2844 23.7146 41.2791 22.424 40.2756C22.279 40.1628 22.0504 40.1659 21.7332 40.0813C23.2882 42.7815 28.4809 46.8837 31.0009 47.3193ZM19.4819 13.5921C20.5129 12.7773 21.4669 11.9199 22.5143 11.2104C23.9826 10.2207 24.5443 8.99035 24.1973 6.87813C23.1554 7.75937 22.4125 8.82113 21.6089 9.78573C20.7598 10.803 20.1303 12.0145 19.4225 13.1534C19.3679 13.2455 19.4564 13.4273 19.4819 13.5921ZM54.2548 44.4073C53.2929 44.339 52.3243 44.5145 51.7209 45.0516C50.5758 46.0701 49.2137 46.5822 47.8278 47.0918C47.1001 47.3588 46.4141 47.7511 45.7288 48.1253C45.6342 48.1767 45.6166 48.4519 45.636 48.6142C45.6427 48.6687 45.8992 48.7584 46.0047 48.7214C47.2492 48.2826 48.535 47.9291 49.7134 47.3425C51.1586 46.6255 52.5154 45.7173 53.8981 44.8749C54.0431 44.7909 54.1195 44.5922 54.2548 44.4073ZM17.5084 30.2836C17.2319 31.1266 17.2864 31.5936 17.4605 32.0906C17.9427 33.4695 18.2356 34.9249 19.1047 36.1295C19.4267 36.5764 19.4928 37.5755 20.0872 37.3599C20.6106 37.1719 19.998 36.3809 19.9623 35.8475C19.8252 33.8099 18.7893 32.1677 17.5084 30.2836ZM26.838 4.90882L26.9672 5.11001C27.6858 4.83423 28.4112 4.5735 29.1226 4.27829C30.6687 3.63689 32.21 2.98359 33.7465 2.31837C34.0564 2.18299 34.3402 1.96613 34.6046 1.74676C34.6786 1.68408 34.6653 1.47349 34.6422 1.34312C34.6301 1.28483 34.4839 1.22152 34.3996 1.21776C34.2555 1.22102 34.1125 1.2455 33.9751 1.29047C31.8864 1.90408 29.9165 2.81227 28.0315 3.91476C27.5906 4.17299 27.2328 4.57412 26.838 4.90882ZM63.5212 26.7925C63.6474 26.6409 63.7463 26.5775 63.7529 26.5061C63.9567 24.2861 63.7293 22.0861 63.4351 19.8918C63.4206 19.7815 63.2726 19.6235 63.1719 19.6104C63.0609 19.5953 62.8881 19.6906 62.8208 19.7934C62.7101 19.9561 62.6412 20.1453 62.6206 20.3431C62.5098 22.1528 62.6252 23.9697 62.9639 25.749C63.0306 26.1081 63.3181 26.424 63.5212 26.7925ZM17.0038 20.6665C17.8189 20.3449 17.9408 19.7627 18.0282 19.2374C18.2411 17.9557 18.7735 16.7222 18.5977 15.3671C17.7456 16.9842 16.9893 18.6226 17.0038 20.6665ZM36.7316 48.8035C34.9042 47.9674 34.4087 47.8796 32.7821 48.114C33.4717 48.3842 34.0922 48.8135 34.7162 48.8204C35.367 48.8304 36.0711 49.6546 36.7316 48.8035Z" fill="#3C322D"/>
<path d="M40.4997 32.1771C39.2503 32.1539 38.3921 31.613 37.7565 30.5682C37.1646 29.5936 36.1797 29.0878 35.2778 28.4873C34.1407 27.7308 33.2158 26.8771 32.9532 25.3434C32.7712 24.3036 32.9829 23.4004 33.391 22.5794C33.7337 21.8931 34.3451 21.2556 34.9873 20.8476C35.6836 20.4051 36.2609 19.9877 36.5824 19.1704C36.9463 18.2302 37.8633 18.1732 38.6754 18.0039C39.4401 17.8447 40.2177 17.7426 40.9715 17.5433C42.0025 17.2712 42.9383 17.3552 43.6916 18.1857C44.2738 18.83 44.9537 19.292 45.7118 19.6831C46.5002 20.0892 46.7604 20.5637 46.5136 21.4123C46.3456 21.9883 46.5081 22.3807 46.7155 22.8407C46.9424 23.3422 47.1759 23.8517 47.3317 24.3813C47.8509 26.1438 47.2535 27.6274 45.6548 28.4121C44.6638 28.8985 43.9051 29.5466 43.6582 30.6867C43.5594 31.1461 43.2822 31.4068 42.8904 31.5259C42.0996 31.7653 41.2972 31.9628 40.4997 32.1771ZM45.7446 24.7881C45.77 21.6831 43.4945 19.2005 40.5354 19.1967C37.8803 19.1967 35.2093 21.0551 35.1056 24.6164C35.0225 27.4669 37.318 30.1219 40.3104 30.132C43.9548 30.1508 45.6736 27.5334 45.7446 24.7881ZM35.0765 27.7565C35.0765 27.3585 35.1135 27.1548 35.071 26.9712C34.6786 25.2845 34.4233 23.6142 35.3136 21.9896C35.3779 21.873 35.2299 21.6323 35.1802 21.4493C35.0055 21.5076 34.7945 21.5195 34.6622 21.6317C33.1915 22.8802 32.5353 25.8781 35.0765 27.7565ZM40.5385 18.4176C41.1541 18.6508 41.5052 18.8162 41.8727 18.919C43.2282 19.2901 44.3848 19.957 45.1896 21.1867C45.3485 21.4286 45.5535 21.7884 45.8568 21.5126C46.0181 21.3653 46.0708 20.9153 45.9781 20.6903C45.8525 20.3913 45.5675 20.0184 45.2933 19.9595C44.5486 19.7984 44.141 19.2406 43.6558 18.7542C42.8395 17.9438 41.9279 17.6893 40.5385 18.4176ZM40.4548 30.6397L40.4366 30.5224C40.046 30.5224 39.6518 30.488 39.2673 30.5369C39.0696 30.5619 38.8901 30.7355 38.7026 30.8421C38.8731 30.9982 39.0217 31.2439 39.2182 31.2946C40.2686 31.5685 41.3275 31.6274 42.3634 31.2081C42.5405 31.1361 42.7376 31.042 42.8486 30.8947C42.9468 30.7694 42.979 30.5469 42.959 30.3783C42.9511 30.3156 42.7061 30.221 42.5848 30.241C41.8734 30.3564 41.165 30.5018 40.4578 30.6378L40.4548 30.6397ZM45.827 27.455C46.5548 27.3153 46.8799 26.8909 46.9223 26.2385C46.9538 25.6885 46.9461 25.1369 46.8993 24.5882C46.8878 24.4434 46.6925 24.3143 46.5815 24.1776C46.4196 24.3362 46.0909 24.5493 46.1206 24.6446C46.4159 25.5966 45.7985 26.4491 45.827 27.4531V27.455Z" fill="#3C322D"/>
<path d="M52.4844 31.7541C52.4426 31.776 52.274 31.922 52.0914 31.9421C51.9252 31.9621 51.6826 31.9045 51.5795 31.7841C51.0622 31.1806 50.56 30.5601 50.0973 29.9113C49.976 29.7415 49.9263 29.2846 49.9954 29.2451C50.2228 29.1153 50.6674 28.98 50.7662 29.0922C51.3515 29.7597 51.8664 30.4936 52.3953 31.2132C52.4468 31.2852 52.4311 31.4087 52.4844 31.7541Z" fill="#3C322D"/>
<path d="M27.7077 36.982C27.9782 37.0045 28.5125 37.0214 29.0335 37.1136C29.1632 37.1368 29.3367 37.3994 29.3367 37.5561C29.3367 37.7128 29.1869 37.9835 29.0571 38.0167C28.0443 38.2769 27.0363 38.3408 26.1399 37.6407C26.0893 37.5919 26.0501 37.5318 26.0254 37.465C26.0007 37.3982 25.9911 37.3265 25.9974 37.2552C26.0168 37.1506 26.1739 37.0045 26.2794 36.997C26.6682 36.9632 27.0581 36.982 27.7077 36.982Z" fill="#3C322D"/>
<path d="M59.4463 14.9409L59.8296 15.1578C59.721 15.359 59.6543 15.6824 59.496 15.7407C58.7667 16.0179 58.0184 16.2387 57.2575 16.4013C57.0385 16.4458 56.7207 16.2233 56.5188 16.0396C56.2859 15.8272 56.4248 15.3659 56.7183 15.3195C57.5813 15.1822 58.4504 15.0769 59.4463 14.9409Z" fill="#3C322D"/>
<path d="M33.6652 41.4696C34.0703 41.6652 34.4093 41.7203 34.5749 41.9291C35.0283 42.5107 35.4431 43.1234 35.8164 43.763C35.9983 44.0676 35.8322 44.3973 35.5259 44.485C35.3579 44.5333 35.0534 44.3916 34.9297 44.2343C34.4353 43.6188 33.9772 42.9731 33.5578 42.3007C33.4608 42.1409 33.6112 41.82 33.6652 41.4696Z" fill="#3C322D"/>
<path d="M49.5612 17.2155C49.5866 17.0375 49.5612 16.8338 49.6418 16.7554C49.751 16.6526 49.9851 16.5674 50.0973 16.6232C50.2507 16.699 50.3502 16.9071 50.4557 17.0707C50.7493 17.5257 51.0398 17.9833 51.3194 18.4496C51.4443 18.6583 51.6123 18.8808 51.6226 19.1058C51.6347 19.3139 51.5122 19.584 51.3606 19.7269C51.2763 19.8072 50.9288 19.7551 50.8433 19.6442C50.2829 18.9077 49.6109 18.2183 49.5612 17.2155Z" fill="#3C322D"/>
<path d="M51.3048 9.39086C51.1835 10.143 51.135 10.6964 50.9937 11.2267C50.9051 11.5131 50.7362 11.7659 50.5085 11.9531C50.3478 12.0872 50.0676 12.0678 49.8414 12.1167C49.8232 11.8979 49.7571 11.6698 49.7953 11.4623C49.9135 10.8218 50.0718 10.1887 50.2137 9.55319C50.2247 9.50368 50.2216 9.45103 50.2356 9.40277C50.3472 9.01918 50.5886 8.72711 50.9749 8.88568C51.1696 8.96591 51.2605 9.31753 51.3048 9.39086Z" fill="#3C322D"/>
<path d="M40.8478 14.2822C41.1886 14.3261 41.6296 14.3499 42.0505 14.4552C42.1942 14.4909 42.4065 14.7585 42.3816 14.8739C42.3379 15.0801 42.1717 15.3515 41.9965 15.4129C41.7187 15.5025 41.4212 15.5041 41.1425 15.4173C40.6574 15.2574 40.2055 15.2042 39.7215 15.4135C39.4037 15.5514 39.1054 15.4066 39.0205 15.0794C38.907 14.6407 39.2261 14.4282 39.5845 14.3662C39.9666 14.3004 40.3614 14.311 40.8478 14.2822Z" fill="#3C322D"/>
<path d="M48.4125 35.8907C48.2748 36.5131 48.1699 37.059 48.0213 37.5924C47.9922 37.6971 47.7787 37.8381 47.6889 37.8143C47.5276 37.7736 47.3008 37.6419 47.268 37.5053C47.1955 37.2102 47.1872 36.9022 47.2438 36.6034C47.3578 36.0568 47.47 35.5379 47.2559 34.9794C47.154 34.7118 47.1831 34.285 47.5761 34.2862C47.7878 34.2862 48.0923 34.557 48.1875 34.7807C48.3421 35.1386 48.3524 35.5598 48.4125 35.8907Z" fill="#3C322D"/>
<path d="M42.4447 35.7309C42.3658 35.8769 42.3276 36.0493 42.2239 36.1233C41.5853 36.5783 40.9454 37.0352 40.2734 37.4332C40.1018 37.5348 39.8004 37.4721 39.5814 37.405C39.2606 37.3066 39.1939 36.8704 39.4602 36.6936C40.1952 36.2066 40.9345 35.7234 41.692 35.2746C41.8133 35.2025 42.0559 35.2803 42.2124 35.3605C42.3185 35.4156 42.364 35.5936 42.4447 35.7309Z" fill="#3C322D"/>
<path d="M34.3081 6.49267C34.4118 6.55534 34.6071 6.6105 34.6331 6.70953C34.8867 7.67538 35.1311 8.64437 35.3324 9.62213C35.3882 9.89353 35.0407 10.0446 34.8078 9.88225C34.0746 9.37205 33.6179 7.48234 34.0455 6.69198C34.0897 6.61363 34.1977 6.57415 34.3081 6.49267Z" fill="#3C322D"/>
<path d="M43.3689 9.23605C43.1482 9.08374 42.9098 9.00602 42.8777 8.8744C42.8431 8.7315 42.9571 8.48768 43.0809 8.37298C43.619 7.87589 44.1817 7.40811 44.7669 6.97152C44.964 6.82799 45.3734 6.72646 45.525 6.83865C45.8828 7.09876 45.6948 7.46542 45.4456 7.73367C45.1108 8.09532 44.7784 8.4764 44.3927 8.76847C44.0967 8.98847 43.7171 9.08311 43.3689 9.23605Z" fill="#3C322D"/>
<path d="M29.4265 14.3392L28.8903 14.8632C28.7375 14.6921 28.5107 14.5498 28.4464 14.3455C28.1892 13.5457 27.9739 12.7315 27.7695 11.9155C27.7416 11.8033 27.8302 11.5739 27.9212 11.535C28.0697 11.4724 28.3142 11.4473 28.427 11.535C28.6496 11.7049 28.9037 11.9324 28.9764 12.1875C29.1675 12.8519 29.2682 13.5463 29.4265 14.3392Z" fill="#3C322D"/>
<path d="M23.5569 27.7452C23.065 28.6772 22.6914 29.6318 21.7756 30.1401C21.6216 30.2254 21.2808 30.1163 21.1158 29.9803C20.8356 29.7503 21.1158 29.5591 21.2522 29.3629C21.6822 28.7512 22.0795 28.1131 22.5362 27.5246C22.6538 27.3736 22.9528 27.299 23.156 27.3197C23.2943 27.3328 23.4071 27.576 23.5569 27.7452Z" fill="#3C322D"/>
<path d="M29.1129 27.8242C29.3694 27.9778 29.5556 28.0235 29.5902 28.1244C29.6472 28.2899 29.6769 28.55 29.5902 28.6647C29.4495 28.8477 29.2087 28.953 29.0013 29.0759C28.4634 29.3949 27.9327 29.7315 27.3735 30.0035C27.2031 30.0862 26.8944 30.0611 26.7428 29.9496C26.4304 29.7195 26.5402 29.351 26.7913 29.1887C27.5591 28.6916 28.3663 28.2567 29.1129 27.8242Z" fill="#3C322D"/>
<path d="M56.919 23.6035C56.7213 24.0642 56.4436 24.7593 56.1142 25.4274C56.0633 25.5308 55.7443 25.5873 55.609 25.5252C55.4835 25.4669 55.3464 25.2055 55.3719 25.0639C55.5041 24.3212 55.6503 23.5759 55.8729 22.8589C55.9408 22.6402 56.2477 22.4415 56.4836 22.3682C56.5709 22.3412 56.7996 22.6815 56.9081 22.8896C56.97 23.0068 56.919 23.1873 56.919 23.6035Z" fill="#3C322D"/>
<path d="M23.4028 18.0654C24.2732 18.8727 24.1694 19.9689 24.2659 20.9811C24.2841 21.1691 24.0578 21.438 23.8771 21.574C23.7825 21.6455 23.398 21.5308 23.3889 21.465C23.2518 20.4427 23.1463 19.4148 23.062 18.3856C23.0553 18.2979 23.2597 18.1907 23.4028 18.0654Z" fill="#3C322D"/>
<path d="M43.7401 43.0629C43.886 43.1028 44.0296 43.1513 44.1701 43.2083C44.6929 43.459 45.2187 43.7028 45.7288 43.9786C45.9714 44.109 46.214 44.2719 46.3886 44.48C46.5894 44.7213 46.3601 45.1845 46.0793 45.1212C45.1308 44.9094 44.2041 44.6135 43.4945 43.8802C43.3896 43.7718 43.392 43.5004 43.426 43.3205C43.446 43.2189 43.6291 43.1488 43.7401 43.0629Z" fill="#3C322D"/>
<path d="M32.1969 18.3606C32.2472 18.5229 32.4195 18.7749 32.3588 18.9328C32.0404 19.7696 31.6717 20.5869 31.2963 21.3985C31.2502 21.4982 31.0537 21.5866 30.9372 21.5703C30.8353 21.5571 30.6946 21.4092 30.6679 21.297C30.469 20.3926 31.0961 18.7736 31.7954 18.3662C31.8676 18.3242 31.9828 18.3606 32.1969 18.3606Z" fill="#3C322D"/>
<path d="M59.3195 32.0925C59.2103 32.0211 58.9829 31.9339 58.8646 31.7653C58.8173 31.6983 58.9702 31.3924 59.1018 31.2946C59.6852 30.8559 60.2808 30.4366 60.9018 30.0618C61.0692 29.9609 61.4173 29.9533 61.5405 30.0668C61.6539 30.1721 61.6709 30.5682 61.5684 30.7136C61.048 31.4632 60.3918 32.0348 59.3195 32.0925Z" fill="#3C322D"/>
<path d="M55.7158 38.547C55.2658 38.4987 55.0699 38.4937 54.8825 38.4505C54.803 38.4323 54.6847 38.3352 54.6835 38.2719C54.6751 38.1292 54.711 37.9876 54.786 37.8676C54.8826 37.7543 55.0091 37.6726 55.1499 37.6325C55.8437 37.4169 56.5382 37.2007 57.2423 37.0258C57.3951 36.9882 57.7172 37.0923 57.7372 37.1825C57.7833 37.3969 57.7281 37.6557 57.6468 37.872C57.6038 37.986 57.4321 38.0813 57.3005 38.1227C56.6977 38.2938 56.0924 38.4467 55.7158 38.547Z" fill="#3C322D"/>
<path d="M34.8242 33.3667C34.7744 33.5855 34.6938 34.07 34.5379 34.5269C34.4991 34.6403 34.1959 34.7494 34.0564 34.708C33.9169 34.6667 33.7531 34.4291 33.7574 34.2806C33.7719 33.4351 33.8126 32.5883 33.8956 31.7465C33.9132 31.5629 34.1382 31.4012 34.268 31.2294C34.4233 31.3993 34.675 31.5491 34.7144 31.744C34.8023 32.1803 34.7835 32.6391 34.8242 33.3667Z" fill="#3C322D"/>
<path d="M67.3382 6.91C67.3382 5.11884 67.7573 3.7607 68.5953 2.8356C69.4428 1.90065 70.5285 1.43318 71.8522 1.43318C73.1759 1.43318 74.2282 1.83668 75.009 2.64369C75.7995 3.4507 76.1947 4.73994 76.1947 6.51142C76.1947 8.2829 75.7757 9.62136 74.9376 10.5268C74.0996 11.4322 72.9806 11.8849 71.5808 11.8849C70.3713 11.8849 69.3809 11.5257 68.6096 10.8073C68.2096 10.4333 67.8953 9.9166 67.6668 9.25722C67.4478 8.58799 67.3382 7.80559 67.3382 6.91ZM71.8093 1.5808C70.8475 1.5808 70.0571 2.02367 69.4381 2.90941C68.8286 3.79515 68.5239 5.09424 68.5239 6.80667C68.5239 8.5191 68.8143 9.76898 69.3952 10.5563C69.9761 11.3436 70.7475 11.7373 71.7093 11.7373C72.6807 11.7373 73.4711 11.2944 74.0806 10.4087C74.6995 9.5131 75.009 8.21893 75.009 6.52618C75.009 4.82359 74.7138 3.57372 74.1234 2.77655C73.5425 1.97938 72.7711 1.5808 71.8093 1.5808Z" fill="#3C322D"/>
<path d="M78.6653 11.8259H77.4797V1.49222H78.6653V6.2457H83.3078V1.49222H84.4934V11.8259H83.3078V6.39332H78.6653V11.8259Z" fill="#3C322D"/>
<path d="M90.5879 11.8259H90.4022L91.645 1.49222H92.1164L95.1161 11.0435L98.1016 1.49222H98.573L99.8157 11.8259H98.6301L97.6445 3.55895L95.059 11.8259H94.159L91.545 3.66229L90.5879 11.8259Z" fill="#3C322D"/>
<path d="M107.729 1.49222C107.91 1.67921 108 1.92033 108 2.21558C108 2.46162 107.948 2.71258 107.843 2.96846L105.286 8.32719V11.8259H104.1V8.65196L101.243 1.49222H102.458L105.186 8.15004L107.671 2.96846C107.776 2.72242 107.829 2.46654 107.829 2.20082C107.829 1.9351 107.757 1.72842 107.614 1.5808L107.729 1.49222Z" fill="#3C322D"/>
<path d="M2.01377 14.541C2.75216 14.5064 3.47376 14.489 4.17858 14.489C4.90018 14.489 5.65535 14.5671 6.44408 14.7231C7.24959 14.8792 8.03831 15.174 8.81026 15.6076C9.59899 16.0238 10.2619 16.5701 10.7989 17.2465C11.3527 17.9055 11.7974 18.7813 12.133 19.8739C12.4686 20.9665 12.6364 22.2933 12.6364 23.8541C12.6364 25.4149 12.3847 26.8197 11.8813 28.0684C11.3946 29.2997 10.7233 30.2449 9.86749 30.9039C8.20613 32.1873 6.20075 32.829 3.85134 32.829C3.02905 32.829 2.16481 32.7943 1.25861 32.7249H0V14.541H2.01377ZM2.08929 32.5168C2.4417 32.5515 2.88641 32.5688 3.42342 32.5688C3.96042 32.5688 4.36318 32.5602 4.63168 32.5428C4.90018 32.5255 5.26938 32.4561 5.73926 32.3347C6.20914 32.196 6.64545 32.0139 7.04821 31.7884C7.45096 31.563 7.8705 31.2334 8.30682 30.7999C8.75992 30.349 9.14589 29.82 9.46474 29.213C10.1863 27.7909 10.5471 25.9352 10.5471 23.646C10.5471 22.0158 10.3542 20.611 9.96818 19.4317C9.58221 18.235 9.1375 17.3506 8.63406 16.7783C8.14739 16.2059 7.55165 15.755 6.84683 15.4255C6.14201 15.0787 5.57983 14.8792 5.1603 14.8272C4.74076 14.7752 4.2541 14.7492 3.70031 14.7492C3.14652 14.7492 2.60952 14.7752 2.08929 14.8272V32.5168Z" fill="#3C322D"/>
<path d="M67.7469 32.7249H67.4196V14.515H68.2755L78.7471 31.3462V14.515H79.0743V32.7249H77.2368L67.7469 17.6367V32.7249Z" fill="#3C322D"/>
<path d="M94.5747 14.515H94.9019V24.9207C94.9019 27.6435 94.3817 29.6466 93.3413 30.9299C92.3008 32.196 90.9415 32.829 89.2634 32.829C88.2061 32.829 87.3083 32.7336 86.5699 32.5428C85.8316 32.3347 85.1351 31.9618 84.4807 31.4242C83.1381 30.349 82.4669 28.1811 82.4669 24.9207V14.515H84.5562V24.8947C84.5562 28.051 85.0177 30.1582 85.9406 31.2161C86.4105 31.7364 86.8972 32.0919 87.4006 32.2827C87.9209 32.4734 88.5418 32.5688 89.2634 32.5688C90.8744 32.5688 92.1582 31.9618 93.1147 30.7478C94.088 29.5165 94.5747 27.5655 94.5747 24.8947V14.515Z" fill="#3C322D"/>
<path d="M103.489 32.7249H101.4V14.7752H97.0451V14.515H107.869V14.7752H103.489V32.7249Z" fill="#3C322D"/>
</svg>
